PathFileType  4	(X/Y/Z) /Users/kristensteudel/Documents/NMBL_Research/BertecForceProcessing/anc_files/
DataRate	CameraRate	NumFrames	NumMarkers	Units	OrigDataRate	OrigDataStartFrame	OrigNumFrames
  200.0		  200.0		   6		     46		 mm	  200.0	      1	   1171
Frame#	Time	r_knee			r_shank_antsup			r_ankle			r_calc			r_5meta			r_toe			L_knee			L_shank_antsup			L_ankle			L_calc			L_5meta			L_toe			r_sh2			r_sh3			r_sh4			L_sh2			L_sh3			r_thigh1			r_thigh2			r_thigh3			r_thigh4			r_thigh5			L_thigh1			L_thigh2			L_thigh3			L_thigh4			r.ASIS			r.PSIS			L.ASIS			L.PSIS			C7			R_Shoulder			L_Shoulder			Sternum			R_humerus			R_elbow_med			R_elbow_lat			R_forearm			R_wrist_radius			R_wrist_ulna			L_humerus			L_elbow_med			L_elbow_lat			L_forearm			L_wrist_radius			L_wrist_ulna			
		X1	Y1	Z1	X2	Y2	Z2	X3	Y3	Z3	X4	Y4	Z4	X5	Y5	Z5	X6	Y6	Z6	X7	Y7	Z7	X8	Y8	Z8	X9	Y9	Z9	X10	Y10	Z10	X11	Y11	Z11	X12	Y12	Z12	X13	Y13	Z13	X14	Y14	Z14	X15	Y15	Z15	X16	Y16	Z16	X17	Y17	Z17	X18	Y18	Z18	X19	Y19	Z19	X20	Y20	Z20	X21	Y21	Z21	X22	Y22	Z22	X23	Y23	Z23	X24	Y24	Z24	X25	Y25	Z25	X26	Y26	Z26	X27	Y27	Z27	X28	Y28	Z28	X29	Y29	Z29	X30	Y30	Z30	X31	Y31	Z31	X32	Y32	Z32	X33	Y33	Z33	X34	Y34	Z34	X35	Y35	Z35	X36	Y36	Z36	X37	Y37	Z37	X38	Y38	Z38	X39	Y39	Z39	X40	Y40	Z40	X41	Y41	Z41	X42	Y42	Z42	X43	Y43	Z43	X44	Y44	Z44	X45	Y45	Z45	X46	Y46	Z46	

1	0.00000	802.465	518.679	-176.105	690.227	502.003	-178.855	406.936	654.624	-207.847	426.822	731.509	-269.988	271.866	607.733	-183.859	270.459	556.136	-246.355	947.162	553.100	-483.080	999.835	439.396	-488.907	1048.822	126.420	-424.560	1008.500	115.737	-359.183	1201.508	48.185	-449.498	1245.356	95.321	-405.437	578.974	543.948	-191.045	708.840	567.839	-148.862	607.999	617.866	-170.493	912.406	426.937	-471.171	950.461	312.927	-445.336	906.357	726.374	-160.833	895.115	611.950	-178.024	852.652	582.202	-156.344	798.622	725.978	-123.149	792.340	611.961	-153.565	932.808	789.395	-521.585	988.445	665.534	-484.745	822.666	744.779	-513.508	882.639	623.462	-480.435	887.197	1021.006	-193.604	675.140	1070.673	-242.926	845.675	1030.467	-452.108	656.833	1068.360	-345.770	823.478	1565.201	-328.903	891.174	1522.307	-140.210	853.504	1517.346	-521.957	950.008	1435.794	-350.065	801.200	1321.426	-41.230	659.973	1239.089	-79.163	689.249	1263.824	4.874	829.102	1144.086	-31.387	904.076	1062.040	-59.695	868.499	1033.365	-39.140	682.322	1351.078	-617.033	540.246	1312.505	-558.179	575.826	1339.703	-641.947	661.834	1194.964	-628.261	747.889	1126.332	-565.741	691.296	1090.476	-599.276
2	0.00500	822.051	516.417	-176.856	710.239	501.626	-179.944	430.615	660.640	-207.812	450.175	738.253	-269.500	295.982	614.103	-182.430	294.098	563.104	-245.050	935.725	547.524	-483.885	986.353	431.193	-487.705	1019.581	115.956	-424.304	976.579	107.274	-359.888	1167.185	35.825	-446.634	1214.303	75.599	-398.530	599.782	546.114	-191.935	730.370	566.894	-149.506	630.351	619.260	-170.619	897.299	421.938	-473.955	929.650	305.885	-448.243	916.985	727.607	-161.633	910.762	612.842	-178.911	870.068	581.118	-156.798	810.002	722.445	-122.922	808.486	608.384	-153.298	928.957	783.045	-525.899	980.729	658.554	-486.050	816.747	742.874	-511.543	873.774	619.161	-481.331	887.376	1018.740	-193.919	672.536	1064.701	-242.138	844.482	1027.914	-453.190	655.874	1064.728	-345.041	822.032	1560.861	-330.409	887.556	1519.613	-139.377	855.105	1511.790	-524.467	950.549	1432.536	-348.217	791.713	1320.467	-42.204	652.588	1239.028	-83.176	679.281	1263.773	1.126	812.799	1133.553	-27.160	882.575	1045.520	-50.375	844.759	1020.123	-29.870	690.956	1335.913	-620.765	548.214	1294.970	-563.613	585.187	1320.720	-647.587	674.036	1178.360	-629.022	760.778	1113.598	-563.800	704.969	1075.605	-597.742
3	0.01000	842.533	514.854	-177.238	731.278	501.367	-181.351	454.766	665.276	-207.376	473.387	743.455	-268.495	320.737	617.576	-182.733	318.076	567.535	-244.317	925.475	541.328	-484.952	971.808	422.550	-487.602	988.617	107.574	-423.480	943.122	101.357	-360.415	1128.722	40.150	-441.085	1180.671	60.425	-387.262	621.558	547.604	-192.542	752.537	566.312	-149.899	653.287	620.286	-170.689	881.739	417.128	-477.182	910.158	298.101	-452.254	927.875	729.620	-162.881	926.930	614.555	-180.256	888.148	580.811	-156.925	821.791	719.216	-122.624	825.208	605.231	-153.222	924.543	775.738	-528.385	972.417	650.583	-485.467	811.756	739.919	-510.728	864.213	614.821	-482.165	887.447	1015.952	-194.381	671.975	1059.749	-241.050	843.069	1025.326	-454.176	655.453	1060.832	-343.805	820.529	1555.978	-331.963	883.523	1516.714	-138.593	856.594	1506.066	-527.050	950.917	1429.120	-346.466	782.558	1319.363	-43.779	645.595	1238.375	-87.032	669.698	1263.772	-2.259	795.636	1123.980	-22.652	859.884	1030.495	-41.180	820.021	1008.436	-20.594	699.971	1320.521	-623.912	556.211	1277.460	-569.232	595.519	1301.202	-652.898	687.125	1162.053	-629.135	774.711	1101.305	-561.639	719.768	1061.015	-595.494
4	0.01500	863.536	514.171	-177.638	753.500	501.271	-183.462	478.687	668.280	-206.777	496.104	747.279	-267.595	345.684	619.234	-181.281	342.773	570.165	-243.764	916.945	534.125	-485.579	957.024	412.717	-488.653	954.978	102.451	-420.617	904.466	92.134	-362.177	1094.906	40.430	-439.419	1143.432	53.376	-379.262	643.942	548.651	-192.642	775.362	566.349	-149.814	676.291	620.077	-172.290	866.542	412.011	-480.258	887.170	292.549	-454.789	938.906	731.946	-164.066	943.559	617.133	-181.197	906.812	581.530	-156.980	834.254	716.588	-121.898	843.139	602.777	-151.488	919.791	769.044	-526.949	963.151	641.823	-484.874	805.414	736.124	-512.123	854.583	610.309	-483.579	887.566	1012.775	-194.907	671.347	1054.981	-239.955	841.740	1022.743	-455.092	654.825	1057.185	-342.517	818.581	1551.279	-334.252	879.573	1513.691	-138.281	858.186	1500.240	-529.347	951.360	1425.432	-344.661	773.746	1317.994	-46.003	638.179	1237.425	-91.417	660.324	1263.712	-5.601	777.860	1115.699	-18.142	836.266	1017.425	-32.580	793.785	999.997	-13.652	709.617	1304.887	-626.091	566.198	1258.646	-573.609	607.630	1281.107	-657.621	701.933	1146.551	-627.331	789.569	1089.752	-558.991	735.920	1047.411	-592.538
5	0.02000	885.210	514.551	-178.674	776.688	501.892	-182.607	502.378	669.799	-206.025	518.178	749.847	-266.228	371.255	618.478	-179.523	367.999	570.115	-242.376	907.986	526.161	-486.287	942.835	402.501	-488.627	916.901	98.525	-412.687	861.468	79.777	-357.118	1056.465	40.638	-438.933	1103.108	53.541	-376.808	666.931	548.893	-193.283	798.031	566.325	-149.497	698.938	620.438	-172.186	852.563	406.709	-483.217	864.685	287.650	-458.087	950.141	735.276	-165.388	960.608	620.796	-182.286	926.378	583.346	-156.943	847.000	714.463	-121.381	861.870	601.131	-151.285	914.293	762.376	-524.023	954.073	632.571	-485.697	799.213	731.837	-514.304	843.656	603.863	-484.856	887.566	1009.088	-195.489	670.861	1049.855	-238.513	840.024	1020.204	-455.843	653.693	1053.532	-341.394	816.809	1546.748	-336.124	874.385	1510.726	-137.883	859.877	1494.158	-531.730	951.670	1421.354	-342.876	765.781	1316.374	-48.674	631.485	1235.645	-93.752	650.790	1264.017	-8.732	759.622	1108.611	-14.063	812.080	1006.501	-24.227	768.163	991.707	-5.225	720.083	1288.780	-625.499	576.440	1240.276	-577.909	622.033	1260.474	-660.506	717.713	1132.086	-625.509	805.977	1080.549	-556.043	753.491	1035.211	-588.631
6	0.02500	907.489	515.708	-180.130	800.235	502.455	-183.684	525.938	669.725	-205.388	539.129	751.187	-264.583	396.456	615.426	-177.707	393.514	568.072	-240.580	898.848	517.845	-485.415	929.935	393.100	-484.902	874.045	94.725	-402.776	822.922	68.178	-345.570	1018.608	41.008	-437.584	1064.332	51.300	-375.558	689.939	548.628	-193.898	820.726	566.323	-148.994	721.612	620.399	-171.706	841.823	404.009	-485.491	842.010	285.899	-459.408	961.124	739.027	-167.334	977.885	625.710	-183.670	946.425	586.474	-157.307	860.470	713.103	-121.059	881.027	600.471	-150.656	908.425	754.974	-520.140	944.913	623.520	-487.185	792.092	726.858	-516.312	833.546	599.078	-484.175	887.401	1004.954	-196.422	669.425	1044.799	-237.313	838.322	1018.118	-456.387	652.448	1050.517	-339.765	815.086	1542.407	-338.448	868.965	1507.803	-137.809	862.132	1488.301	-533.991	952.014	1417.121	-341.077	759.011	1314.255	-51.985	623.495	1235.646	-96.780	641.109	1264.639	-11.547	741.131	1103.277	-9.977	787.746	998.009	-16.365	742.569	985.805	2.544	730.993	1273.627	-624.632	586.996	1222.786	-581.548	635.934	1241.423	-662.679	734.420	1118.786	-622.679	821.914	1072.494	-552.818	772.265	1024.793	-584.207
